<svg id="Layer_1" data-name="Layer 1" xmlns="http://www.w3.org/2000/svg" viewBox="0 0 328.67 452"><defs><style>.cls-1{fill:none;stroke:#fff;stroke-miterlimit:10;stroke-width:5px;}.cls-2{fill:#fff;}</style></defs><title>404error</title><polyline class="cls-1" points="183.82 281.5 87.82 283.62 6.48 201.62 6.48 86.95 87.82 6.28 204.48 6.28 283.82 87.62 283.82 200.95 237.36 250.28"/><polyline class="cls-1" points="188.12 266.87 93.88 268.95 21.15 195.62 21.15 93.08 93.88 20.95 198.21 20.95 269.15 93.68 269.15 195.03 217.32 250.07"/><polyline class="cls-1" points="148.48 444.95 130.48 444.95 130.48 283.62 160.48 283.62 160.48 392.95"/><line class="cls-1" x1="105.15" y1="444.95" x2="325.15" y2="444.95"/><polygon class="cls-1" points="191.82 250.28 148.48 444.95 283.82 444.95 240.48 250.28 191.82 250.28"/><line class="cls-1" x1="183.82" y1="295.62" x2="250.82" y2="296.73"/><line class="cls-1" x1="176.28" y1="320.09" x2="256.16" y2="320.73"/><line class="cls-1" x1="170.15" y1="347.62" x2="262.15" y2="347.62"/><line class="cls-1" x1="164.68" y1="372.18" x2="267.79" y2="372.96"/><path class="cls-2" d="M99.56,179.4H94V165.63H53.71A2.64,2.64,0,0,1,51.17,164a2.6,2.6,0,0,1,.44-3l43.07-50.78a2.76,2.76,0,0,1,4.88,1.81v48h9.91v5.57H99.56ZM59.71,160.07H94V119.64Z"/><path class="cls-2" d="M124.85,169.1q-7.57-10.25-7.57-24.76t7.57-24.76q7.52-10.3,18.16-10.3t18.16,10.3q7.52,10.25,7.52,24.76t-7.52,24.76q-7.52,10.3-18.16,10.3T124.85,169.1Zm3.91-45.61q-5.91,8.64-5.91,20.85t5.91,20.85q5.91,8.64,14.26,8.64t14.26-8.64q5.86-8.64,5.86-20.85t-5.86-20.85q-5.91-8.64-14.26-8.64T128.76,123.49Z"/><path class="cls-2" d="M223.68,179.4h-5.57V165.63H177.83a2.64,2.64,0,0,1-2.54-1.61,2.6,2.6,0,0,1,.44-3l43.07-50.78a2.76,2.76,0,0,1,4.88,1.81v48h9.91v5.57h-9.91Zm-39.84-19.34h34.28V119.64Z"/></svg>